<svg width="25.063477" height="28.000000" viewBox="0 0 25.0635 28" fill="none" xmlns="http://www.w3.org/2000/svg" xmlns:xlink="http://www.w3.org/1999/xlink">
	<desc>
			Created with Pixso.
	</desc>
	<defs/>
	<path id="Vector" d="M12.53 14.53C16.53 14.53 19.8 11.26 19.8 7.26C19.8 3.26 16.53 0 12.53 0C8.53 0 5.26 3.26 5.26 7.26C5.26 11.26 8.53 14.53 12.53 14.53Z" fill="#131313" fill-opacity="0.800000" fill-rule="nonzero"/>
	<path id="Vector" d="M25 20.34C24.81 19.87 24.56 19.42 24.27 19.01C22.81 16.85 20.56 15.42 18.02 15.07C17.7 15.04 17.35 15.11 17.1 15.3C15.77 16.28 14.18 16.79 12.53 16.79C10.88 16.79 9.29 16.28 7.96 15.3C7.7 15.11 7.35 15.01 7.04 15.07C4.5 15.42 2.21 16.85 0.78 19.01C0.5 19.42 0.24 19.9 0.05 20.34C-0.04 20.53 -0.01 20.76 0.08 20.95C0.34 21.39 0.66 21.84 0.94 22.22C1.39 22.82 1.86 23.36 2.4 23.87C2.85 24.31 3.35 24.73 3.86 25.14C6.37 27.01 9.39 28 12.5 28C15.61 28 18.62 27.01 21.13 25.14C21.64 24.76 22.15 24.31 22.59 23.87C23.1 23.36 23.61 22.82 24.05 22.22C24.37 21.8 24.66 21.39 24.91 20.95C25.07 20.76 25.1 20.53 25 20.34Z" fill="#131313" fill-opacity="0.800000" fill-rule="nonzero"/>
</svg>
